<svg xmlns="http://www.w3.org/2000/svg" width="1200" height="300" viewBox="0 0 1200 300"><rect width="100%" height="100%" fill="#f8fafc"/><g font-family="sans-serif" font-size="13" fill="#16324f"><text x="20" y="27" font-size="18">Bottom-up cost by instrumented scope</text><text x="20" y="49">Self wall time (ms). Includes uninstrumented calls and waits; each thread is counted separately.</text><text x="20" y="87">present · render [0]</text><rect x="600" y="72" height="21" width="490.00" fill="#0f766e"/><text x="1100" y="87">1305.99</text><text x="20" y="117">cached_present · render [0]</text><rect x="600" y="102" height="21" width="1.74" fill="#0f766e"/><text x="1100" y="117">4.64</text><text x="20" y="147">capture.frame · render [0]</text><rect x="600" y="132" height="21" width="1.36" fill="#0f766e"/><text x="1100" y="147">3.62</text><text x="20" y="177">mesh · render [0]</text><rect x="600" y="162" height="21" width="0.13" fill="#0f766e"/><text x="1100" y="177">0.34</text><text x="20" y="207">update · render [0]</text><rect x="600" y="192" height="21" width="0.11" fill="#0f766e"/><text x="1100" y="207">0.28</text><text x="20" y="237">overlay · render [0]</text><rect x="600" y="222" height="21" width="0.04" fill="#0f766e"/><text x="1100" y="237">0.11</text><text x="20" y="267">Renderer::preparePlanetMeshes · render [0]</text><rect x="600" y="252" height="21" width="0.03" fill="#0f766e"/><text x="1100" y="267">0.07</text></g></svg>