<svg xmlns="http://www.w3.org/2000/svg" width="1200" height="277" viewBox="0 0 1200 277"><rect width="100%" height="100%" fill="#f8fafc"/><g font-family="sans-serif" font-size="12" fill="#16324f"><text x="20" y="25" font-size="18">Top-down CPU scope timeline</text><text x="130" y="52" text-anchor="start">0.0 ms</text><path d="M130,60 V252" stroke="#dde4ec"/><text x="338" y="52" text-anchor="start">4043.0 ms</text><path d="M338,60 V252" stroke="#dde4ec"/><text x="546" y="52" text-anchor="start">8086.0 ms</text><path d="M546,60 V252" stroke="#dde4ec"/><text x="754" y="52" text-anchor="start">12129.1 ms</text><path d="M754,60 V252" stroke="#dde4ec"/><text x="962" y="52" text-anchor="start">16172.1 ms</text><path d="M962,60 V252" stroke="#dde4ec"/><text x="1170" y="52" text-anchor="end">20215.1 ms</text><path d="M1170,60 V252" stroke="#dde4ec"/><text x="10" y="91">T0 / depth 0</text><text x="10" y="118">T0 / depth 1</text><text x="10" y="145">T0 / depth 2</text><text x="10" y="172">T0 / depth 3</text><text x="10" y="199">T0 / depth 4</text><text x="10" y="226">T0 / depth 5</text><rect x="130.000" y="75" width="80.584" height="22" fill="#2563eb"><title>capture.frame: 1566.361 ms; self 0.292 ms</title></rect><text x="134.000" y="90" fill="white">capture.f</text><rect x="210.585" y="75" width="81.823" height="22" fill="#2563eb"><title>capture.frame: 1590.436 ms; self 0.325 ms</title></rect><text x="214.585" y="90" fill="white">capture.f</text><rect x="292.409" y="75" width="80.087" height="22" fill="#2563eb"><title>capture.frame: 1556.695 ms; self 0.290 ms</title></rect><text x="296.409" y="90" fill="white">capture.f</text><rect x="372.497" y="75" width="195.075" height="22" fill="#2563eb"><title>capture.frame: 3791.794 ms; self 0.307 ms</title></rect><text x="376.497" y="90" fill="white">capture.frame</text><rect x="567.574" y="75" width="81.959" height="22" fill="#2563eb"><title>capture.frame: 1593.079 ms; self 0.311 ms</title></rect><text x="571.574" y="90" fill="white">capture.f</text><rect x="649.533" y="75" width="80.946" height="22" fill="#2563eb"><title>capture.frame: 1573.401 ms; self 0.363 ms</title></rect><text x="653.533" y="90" fill="white">capture.f</text><rect x="730.481" y="75" width="82.025" height="22" fill="#2563eb"><title>capture.frame: 1594.377 ms; self 0.410 ms</title></rect><text x="734.481" y="90" fill="white">capture.f</text><rect x="812.508" y="75" width="82.403" height="22" fill="#2563eb"><title>capture.frame: 1601.716 ms; self 0.290 ms</title></rect><text x="816.508" y="90" fill="white">capture.f</text><rect x="894.912" y="75" width="81.488" height="22" fill="#2563eb"><title>capture.frame: 1583.929 ms; self 0.290 ms</title></rect><text x="898.912" y="90" fill="white">capture.f</text><rect x="976.401" y="75" width="193.599" height="22" fill="#2563eb"><title>capture.frame: 3763.102 ms; self 0.287 ms</title></rect><text x="980.401" y="90" fill="white">capture.frame</text><rect x="130.007" y="102" width="0.300" height="22" fill="#0f766e"><title>update: 0.036 ms; self 0.036 ms</title></rect><rect x="130.010" y="102" width="0.300" height="22" fill="#0f766e"><title>mesh: 0.029 ms; self 0.023 ms</title></rect><rect x="130.012" y="102" width="73.900" height="22" fill="#0f766e"><title>renderScene: 1436.428 ms; self 0.264 ms</title></rect><text x="134.012" y="117" fill="white">renderSc</text><rect x="203.913" y="102" width="0.300" height="22" fill="#0f766e"><title>overlay: 0.009 ms; self 0.009 ms</title></rect><rect x="203.914" y="102" width="6.666" height="22" fill="#0f766e"><title>present: 129.566 ms; self 129.566 ms</title></rect><rect x="210.592" y="102" width="0.300" height="22" fill="#0f766e"><title>update: 0.034 ms; self 0.034 ms</title></rect><rect x="210.595" y="102" width="0.300" height="22" fill="#0f766e"><title>mesh: 0.029 ms; self 0.023 ms</title></rect><rect x="210.597" y="102" width="75.060" height="22" fill="#0f766e"><title>renderScene: 1458.991 ms; self 0.274 ms</title></rect><text x="214.597" y="117" fill="white">renderSc</text><rect x="285.659" y="102" width="0.300" height="22" fill="#0f766e"><title>overlay: 0.009 ms; self 0.009 ms</title></rect><rect x="285.660" y="102" width="6.742" height="22" fill="#0f766e"><title>present: 131.048 ms; self 131.048 ms</title></rect><rect x="292.416" y="102" width="0.300" height="22" fill="#0f766e"><title>update: 0.035 ms; self 0.035 ms</title></rect><rect x="292.419" y="102" width="0.300" height="22" fill="#0f766e"><title>mesh: 0.029 ms; self 0.023 ms</title></rect><rect x="292.421" y="102" width="73.326" height="22" fill="#0f766e"><title>renderScene: 1425.289 ms; self 0.274 ms</title></rect><text x="296.421" y="117" fill="white">renderSc</text><rect x="365.749" y="102" width="0.300" height="22" fill="#0f766e"><title>overlay: 0.009 ms; self 0.009 ms</title></rect><rect x="365.750" y="102" width="6.742" height="22" fill="#0f766e"><title>present: 131.043 ms; self 131.043 ms</title></rect><rect x="372.504" y="102" width="0.300" height="22" fill="#0f766e"><title>update: 0.036 ms; self 0.036 ms</title></rect><rect x="372.508" y="102" width="108.898" height="22" fill="#0f766e"><title>mesh: 2116.721 ms; self 0.022 ms</title></rect><text x="376.508" y="117" fill="white">mesh</text><rect x="481.407" y="102" width="79.406" height="22" fill="#0f766e"><title>renderScene: 1543.467 ms; self 0.274 ms</title></rect><text x="485.407" y="117" fill="white">renderSce</text><rect x="560.814" y="102" width="0.300" height="22" fill="#0f766e"><title>overlay: 0.009 ms; self 0.009 ms</title></rect><rect x="560.816" y="102" width="6.753" height="22" fill="#0f766e"><title>present: 131.255 ms; self 131.255 ms</title></rect><rect x="567.581" y="102" width="0.300" height="22" fill="#0f766e"><title>update: 0.035 ms; self 0.035 ms</title></rect><rect x="567.583" y="102" width="0.300" height="22" fill="#0f766e"><title>mesh: 0.029 ms; self 0.023 ms</title></rect><rect x="567.586" y="102" width="75.237" height="22" fill="#0f766e"><title>renderScene: 1462.426 ms; self 0.305 ms</title></rect><text x="571.586" y="117" fill="white">renderSc</text><rect x="642.825" y="102" width="0.300" height="22" fill="#0f766e"><title>overlay: 0.011 ms; self 0.011 ms</title></rect><rect x="642.827" y="102" width="6.702" height="22" fill="#0f766e"><title>present: 130.266 ms; self 130.266 ms</title></rect><rect x="649.541" y="102" width="0.300" height="22" fill="#0f766e"><title>update: 0.051 ms; self 0.051 ms</title></rect><rect x="649.546" y="102" width="0.300" height="22" fill="#0f766e"><title>mesh: 0.031 ms; self 0.025 ms</title></rect><rect x="649.549" y="102" width="74.252" height="22" fill="#0f766e"><title>renderScene: 1443.286 ms; self 0.278 ms</title></rect><text x="653.549" y="117" fill="white">renderSc</text><rect x="723.803" y="102" width="0.300" height="22" fill="#0f766e"><title>overlay: 0.012 ms; self 0.012 ms</title></rect><rect x="723.805" y="102" width="6.670" height="22" fill="#0f766e"><title>present: 129.658 ms; self 129.658 ms</title></rect><rect x="730.492" y="102" width="0.300" height="22" fill="#0f766e"><title>update: 0.040 ms; self 0.040 ms</title></rect><rect x="730.496" y="102" width="0.300" height="22" fill="#0f766e"><title>mesh: 0.051 ms; self 0.045 ms</title></rect><rect x="730.500" y="102" width="75.265" height="22" fill="#0f766e"><title>renderScene: 1462.963 ms; self 0.348 ms</title></rect><text x="734.500" y="117" fill="white">renderSc</text><rect x="805.766" y="102" width="0.300" height="22" fill="#0f766e"><title>overlay: 0.009 ms; self 0.009 ms</title></rect><rect x="805.768" y="102" width="6.735" height="22" fill="#0f766e"><title>present: 130.904 ms; self 130.904 ms</title></rect><rect x="812.514" y="102" width="0.300" height="22" fill="#0f766e"><title>update: 0.035 ms; self 0.035 ms</title></rect><rect x="812.517" y="102" width="0.300" height="22" fill="#0f766e"><title>mesh: 0.029 ms; self 0.024 ms</title></rect><rect x="812.520" y="102" width="75.650" height="22" fill="#0f766e"><title>renderScene: 1470.452 ms; self 0.273 ms</title></rect><text x="816.520" y="117" fill="white">renderSc</text><rect x="888.171" y="102" width="0.300" height="22" fill="#0f766e"><title>overlay: 0.009 ms; self 0.009 ms</title></rect><rect x="888.172" y="102" width="6.734" height="22" fill="#0f766e"><title>present: 130.901 ms; self 130.901 ms</title></rect><rect x="894.919" y="102" width="0.300" height="22" fill="#0f766e"><title>update: 0.037 ms; self 0.037 ms</title></rect><rect x="894.922" y="102" width="0.300" height="22" fill="#0f766e"><title>mesh: 0.029 ms; self 0.023 ms</title></rect><rect x="894.924" y="102" width="74.757" height="22" fill="#0f766e"><title>renderScene: 1453.102 ms; self 0.260 ms</title></rect><text x="898.924" y="117" fill="white">renderSc</text><rect x="969.682" y="102" width="0.300" height="22" fill="#0f766e"><title>overlay: 0.009 ms; self 0.009 ms</title></rect><rect x="969.684" y="102" width="6.712" height="22" fill="#0f766e"><title>present: 130.462 ms; self 130.462 ms</title></rect><rect x="976.407" y="102" width="0.300" height="22" fill="#0f766e"><title>update: 0.034 ms; self 0.034 ms</title></rect><rect x="976.410" y="102" width="104.915" height="22" fill="#0f766e"><title>mesh: 2039.294 ms; self 0.024 ms</title></rect><text x="980.410" y="117" fill="white">mesh</text><rect x="1081.326" y="102" width="81.942" height="22" fill="#0f766e"><title>renderScene: 1592.745 ms; self 0.299 ms</title></rect><text x="1085.326" y="117" fill="white">renderSce</text><rect x="1163.269" y="102" width="0.300" height="22" fill="#0f766e"><title>overlay: 0.009 ms; self 0.009 ms</title></rect><rect x="1163.270" y="102" width="6.726" height="22" fill="#0f766e"><title>present: 130.733 ms; self 130.733 ms</title></rect><rect x="130.010" y="129" width="0.300" height="22" fill="#b45309"><title>Renderer::preparePlanetMeshes: 0.006 ms; self 0.006 ms</title></rect><rect x="130.012" y="129" width="0.300" height="22" fill="#b45309"><title>lighting: 0.012 ms; self 0.012 ms</title></rect><rect x="130.014" y="129" width="0.300" height="22" fill="#b45309"><title>foliage: 0.048 ms; self 0.040 ms</title></rect><rect x="130.017" y="129" width="0.300" height="22" fill="#b45309"><title>tables: 0.012 ms; self 0.012 ms</title></rect><rect x="130.019" y="129" width="0.300" height="22" fill="#b45309"><title>shadows: 0.008 ms; self 0.008 ms</title></rect><rect x="130.020" y="129" width="2.226" height="22" fill="#b45309"><title>opaque: 43.263 ms; self 43.212 ms</title></rect><rect x="132.247" y="129" width="2.796" height="22" fill="#b45309"><title>reflection: 54.352 ms; self 54.298 ms</title></rect><rect x="135.045" y="129" width="50.205" height="22" fill="#b45309"><title>reflection_atmosphere: 975.872 ms; self 975.872 ms</title></rect><rect x="185.253" y="129" width="1.023" height="22" fill="#b45309"><title>water: 19.892 ms; self 19.857 ms</title></rect><rect x="186.278" y="129" width="17.631" height="22" fill="#b45309"><title>atmosphere: 342.706 ms; self 342.706 ms</title></rect><rect x="210.595" y="129" width="0.300" height="22" fill="#b45309"><title>Renderer::preparePlanetMeshes: 0.006 ms; self 0.006 ms</title></rect><rect x="210.598" y="129" width="0.300" height="22" fill="#b45309"><title>lighting: 0.013 ms; self 0.013 ms</title></rect><rect x="210.599" y="129" width="0.300" height="22" fill="#b45309"><title>foliage: 0.047 ms; self 0.039 ms</title></rect><rect x="210.602" y="129" width="0.300" height="22" fill="#b45309"><title>tables: 0.011 ms; self 0.011 ms</title></rect><rect x="210.604" y="129" width="0.300" height="22" fill="#b45309"><title>shadows: 0.032 ms; self 0.032 ms</title></rect><rect x="210.606" y="129" width="2.250" height="22" fill="#b45309"><title>opaque: 43.737 ms; self 43.684 ms</title></rect><rect x="212.858" y="129" width="2.814" height="22" fill="#b45309"><title>reflection: 54.699 ms; self 54.644 ms</title></rect><rect x="215.674" y="129" width="51.287" height="22" fill="#b45309"><title>reflection_atmosphere: 996.887 ms; self 996.887 ms</title></rect><rect x="266.963" y="129" width="1.007" height="22" fill="#b45309"><title>water: 19.566 ms; self 19.530 ms</title></rect><rect x="267.972" y="129" width="17.684" height="22" fill="#b45309"><title>atmosphere: 343.725 ms; self 343.725 ms</title></rect><rect x="292.419" y="129" width="0.300" height="22" fill="#b45309"><title>Renderer::preparePlanetMeshes: 0.006 ms; self 0.006 ms</title></rect><rect x="292.422" y="129" width="0.300" height="22" fill="#b45309"><title>lighting: 0.012 ms; self 0.012 ms</title></rect><rect x="292.423" y="129" width="0.300" height="22" fill="#b45309"><title>foliage: 0.818 ms; self 0.806 ms</title></rect><rect x="292.466" y="129" width="0.300" height="22" fill="#b45309"><title>tables: 0.015 ms; self 0.015 ms</title></rect><rect x="292.468" y="129" width="0.300" height="22" fill="#b45309"><title>shadows: 0.008 ms; self 0.008 ms</title></rect><rect x="292.469" y="129" width="2.189" height="22" fill="#b45309"><title>opaque: 42.551 ms; self 42.499 ms</title></rect><rect x="294.660" y="129" width="2.763" height="22" fill="#b45309"><title>reflection: 53.711 ms; self 53.658 ms</title></rect><rect x="297.424" y="129" width="49.903" height="22" fill="#b45309"><title>reflection_atmosphere: 969.993 ms; self 969.993 ms</title></rect><rect x="347.330" y="129" width="0.976" height="22" fill="#b45309"><title>water: 18.977 ms; self 18.942 ms</title></rect><rect x="348.308" y="129" width="17.437" height="22" fill="#b45309"><title>atmosphere: 338.930 ms; self 338.930 ms</title></rect><rect x="372.508" y="129" width="108.897" height="22" fill="#b45309"><title>Renderer::preparePlanetMeshes: 2116.699 ms; self 1.236 ms</title></rect><text x="376.508" y="144" fill="white">mesh.prepare</text><rect x="481.407" y="129" width="0.300" height="22" fill="#b45309"><title>lighting: 0.012 ms; self 0.012 ms</title></rect><rect x="481.409" y="129" width="0.300" height="22" fill="#b45309"><title>foliage: 0.042 ms; self 0.035 ms</title></rect><rect x="481.412" y="129" width="0.300" height="22" fill="#b45309"><title>tables: 0.019 ms; self 0.019 ms</title></rect><rect x="481.413" y="129" width="1.612" height="22" fill="#b45309"><title>shadows: 31.341 ms; self 31.341 ms</title></rect><rect x="483.028" y="129" width="7.052" height="22" fill="#b45309"><title>opaque: 137.077 ms; self 137.021 ms</title></rect><rect x="490.081" y="129" width="2.729" height="22" fill="#b45309"><title>reflection: 53.039 ms; self 52.988 ms</title></rect><rect x="492.811" y="129" width="49.386" height="22" fill="#b45309"><title>reflection_atmosphere: 959.943 ms; self 959.943 ms</title></rect><rect x="542.200" y="129" width="1.076" height="22" fill="#b45309"><title>water: 20.920 ms; self 20.885 ms</title></rect><rect x="543.278" y="129" width="17.533" height="22" fill="#b45309"><title>atmosphere: 340.799 ms; self 340.799 ms</title></rect><rect x="567.584" y="129" width="0.300" height="22" fill="#b45309"><title>Renderer::preparePlanetMeshes: 0.006 ms; self 0.006 ms</title></rect><rect x="567.586" y="129" width="0.300" height="22" fill="#b45309"><title>lighting: 0.012 ms; self 0.012 ms</title></rect><rect x="567.588" y="129" width="0.300" height="22" fill="#b45309"><title>foliage: 0.046 ms; self 0.038 ms</title></rect><rect x="567.591" y="129" width="0.300" height="22" fill="#b45309"><title>tables: 0.012 ms; self 0.012 ms</title></rect><rect x="567.592" y="129" width="0.300" height="22" fill="#b45309"><title>shadows: 0.008 ms; self 0.008 ms</title></rect><rect x="567.595" y="129" width="2.242" height="22" fill="#b45309"><title>opaque: 43.570 ms; self 43.519 ms</title></rect><rect x="569.837" y="129" width="2.821" height="22" fill="#b45309"><title>reflection: 54.835 ms; self 54.784 ms</title></rect><rect x="572.660" y="129" width="51.258" height="22" fill="#b45309"><title>reflection_atmosphere: 996.339 ms; self 996.339 ms</title></rect><rect x="623.921" y="129" width="1.118" height="22" fill="#b45309"><title>water: 21.733 ms; self 21.697 ms</title></rect><rect x="625.041" y="129" width="17.778" height="22" fill="#b45309"><title>atmosphere: 345.567 ms; self 345.567 ms</title></rect><rect x="649.546" y="129" width="0.300" height="22" fill="#b45309"><title>Renderer::preparePlanetMeshes: 0.006 ms; self 0.006 ms</title></rect><rect x="649.549" y="129" width="0.300" height="22" fill="#b45309"><title>lighting: 0.013 ms; self 0.013 ms</title></rect><rect x="649.551" y="129" width="0.300" height="22" fill="#b45309"><title>foliage: 0.047 ms; self 0.039 ms</title></rect><rect x="649.554" y="129" width="0.300" height="22" fill="#b45309"><title>tables: 0.012 ms; self 0.012 ms</title></rect><rect x="649.556" y="129" width="0.300" height="22" fill="#b45309"><title>shadows: 0.009 ms; self 0.009 ms</title></rect><rect x="649.557" y="129" width="2.219" height="22" fill="#b45309"><title>opaque: 43.123 ms; self 43.075 ms</title></rect><rect x="651.777" y="129" width="3.129" height="22" fill="#b45309"><title>reflection: 60.824 ms; self 60.760 ms</title></rect><rect x="654.908" y="129" width="50.041" height="22" fill="#b45309"><title>reflection_atmosphere: 972.677 ms; self 972.677 ms</title></rect><rect x="704.951" y="129" width="1.047" height="22" fill="#b45309"><title>water: 20.347 ms; self 20.313 ms</title></rect><rect x="706.000" y="129" width="17.798" height="22" fill="#b45309"><title>atmosphere: 345.955 ms; self 345.955 ms</title></rect><rect x="730.496" y="129" width="0.300" height="22" fill="#b45309"><title>Renderer::preparePlanetMeshes: 0.006 ms; self 0.006 ms</title></rect><rect x="730.501" y="129" width="0.300" height="22" fill="#b45309"><title>lighting: 0.014 ms; self 0.014 ms</title></rect><rect x="730.503" y="129" width="0.300" height="22" fill="#b45309"><title>foliage: 0.090 ms; self 0.081 ms</title></rect><rect x="730.510" y="129" width="0.300" height="22" fill="#b45309"><title>tables: 0.013 ms; self 0.013 ms</title></rect><rect x="730.512" y="129" width="0.300" height="22" fill="#b45309"><title>shadows: 0.008 ms; self 0.008 ms</title></rect><rect x="730.515" y="129" width="2.246" height="22" fill="#b45309"><title>opaque: 43.665 ms; self 43.611 ms</title></rect><rect x="732.763" y="129" width="3.253" height="22" fill="#b45309"><title>reflection: 63.227 ms; self 63.145 ms</title></rect><rect x="736.017" y="129" width="51.278" height="22" fill="#b45309"><title>reflection_atmosphere: 996.720 ms; self 996.720 ms</title></rect><rect x="787.297" y="129" width="1.013" height="22" fill="#b45309"><title>water: 19.687 ms; self 19.653 ms</title></rect><rect x="788.312" y="129" width="17.450" height="22" fill="#b45309"><title>atmosphere: 339.191 ms; self 339.191 ms</title></rect><rect x="812.517" y="129" width="0.300" height="22" fill="#b45309"><title>Renderer::preparePlanetMeshes: 0.006 ms; self 0.006 ms</title></rect><rect x="812.520" y="129" width="0.300" height="22" fill="#b45309"><title>lighting: 0.012 ms; self 0.012 ms</title></rect><rect x="812.521" y="129" width="0.300" height="22" fill="#b45309"><title>foliage: 0.047 ms; self 0.039 ms</title></rect><rect x="812.525" y="129" width="0.300" height="22" fill="#b45309"><title>tables: 0.012 ms; self 0.012 ms</title></rect><rect x="812.526" y="129" width="0.300" height="22" fill="#b45309"><title>shadows: 0.024 ms; self 0.024 ms</title></rect><rect x="812.528" y="129" width="2.844" height="22" fill="#b45309"><title>opaque: 55.278 ms; self 55.217 ms</title></rect><rect x="815.374" y="129" width="2.744" height="22" fill="#b45309"><title>reflection: 53.343 ms; self 53.288 ms</title></rect><rect x="818.119" y="129" width="50.836" height="22" fill="#b45309"><title>reflection_atmosphere: 988.123 ms; self 988.123 ms</title></rect><rect x="868.958" y="129" width="1.011" height="22" fill="#b45309"><title>water: 19.649 ms; self 19.614 ms</title></rect><rect x="869.971" y="129" width="18.196" height="22" fill="#b45309"><title>atmosphere: 353.692 ms; self 353.692 ms</title></rect><rect x="894.922" y="129" width="0.300" height="22" fill="#b45309"><title>Renderer::preparePlanetMeshes: 0.006 ms; self 0.006 ms</title></rect><rect x="894.924" y="129" width="0.300" height="22" fill="#b45309"><title>lighting: 0.012 ms; self 0.012 ms</title></rect><rect x="894.926" y="129" width="0.300" height="22" fill="#b45309"><title>foliage: 0.046 ms; self 0.038 ms</title></rect><rect x="894.929" y="129" width="0.300" height="22" fill="#b45309"><title>tables: 0.012 ms; self 0.012 ms</title></rect><rect x="894.930" y="129" width="0.300" height="22" fill="#b45309"><title>shadows: 0.008 ms; self 0.008 ms</title></rect><rect x="894.932" y="129" width="2.251" height="22" fill="#b45309"><title>opaque: 43.749 ms; self 43.697 ms</title></rect><rect x="897.184" y="129" width="2.696" height="22" fill="#b45309"><title>reflection: 52.399 ms; self 52.350 ms</title></rect><rect x="899.881" y="129" width="51.471" height="22" fill="#b45309"><title>reflection_atmosphere: 1000.467 ms; self 1000.467 ms</title></rect><rect x="951.354" y="129" width="0.996" height="22" fill="#b45309"><title>water: 19.356 ms; self 19.321 ms</title></rect><rect x="952.352" y="129" width="17.327" height="22" fill="#b45309"><title>atmosphere: 336.793 ms; self 336.793 ms</title></rect><rect x="976.411" y="129" width="104.914" height="22" fill="#b45309"><title>Renderer::preparePlanetMeshes: 2039.270 ms; self 1.365 ms</title></rect><text x="980.411" y="144" fill="white">mesh.prepare</text><rect x="1081.326" y="129" width="0.300" height="22" fill="#b45309"><title>lighting: 0.015 ms; self 0.015 ms</title></rect><rect x="1081.328" y="129" width="0.300" height="22" fill="#b45309"><title>foliage: 0.046 ms; self 0.038 ms</title></rect><rect x="1081.331" y="129" width="0.300" height="22" fill="#b45309"><title>tables: 0.020 ms; self 0.020 ms</title></rect><rect x="1081.333" y="129" width="2.025" height="22" fill="#b45309"><title>shadows: 39.355 ms; self 39.355 ms</title></rect><rect x="1083.361" y="129" width="8.066" height="22" fill="#b45309"><title>opaque: 156.788 ms; self 156.724 ms</title></rect><rect x="1091.428" y="129" width="2.751" height="22" fill="#b45309"><title>reflection: 53.482 ms; self 53.426 ms</title></rect><rect x="1094.181" y="129" width="49.545" height="22" fill="#b45309"><title>reflection_atmosphere: 963.043 ms; self 963.043 ms</title></rect><rect x="1143.729" y="129" width="1.092" height="22" fill="#b45309"><title>water: 21.229 ms; self 21.194 ms</title></rect><rect x="1144.823" y="129" width="18.442" height="22" fill="#b45309"><title>atmosphere: 358.466 ms; self 358.466 ms</title></rect><rect x="130.014" y="156" width="0.300" height="22" fill="#7c3aed"><title>GrassRenderer::prepare: 0.004 ms; self 0.004 ms</title></rect><rect x="130.015" y="156" width="0.300" height="22" fill="#7c3aed"><title>GrassRenderer::prepare: 0.004 ms; self 0.004 ms</title></rect><rect x="130.041" y="156" width="0.300" height="22" fill="#7c3aed"><title>setBodyLighting: 0.028 ms; self 0.028 ms</title></rect><rect x="132.227" y="156" width="0.300" height="22" fill="#7c3aed"><title>setBodyLighting: 0.023 ms; self 0.023 ms</title></rect><rect x="132.264" y="156" width="0.300" height="22" fill="#7c3aed"><title>setBodyLighting: 0.024 ms; self 0.024 ms</title></rect><rect x="135.018" y="156" width="0.300" height="22" fill="#7c3aed"><title>setBodyLighting: 0.030 ms; self 0.030 ms</title></rect><rect x="185.254" y="156" width="0.300" height="22" fill="#7c3aed"><title>setBodyLighting: 0.035 ms; self 0.035 ms</title></rect><rect x="210.599" y="156" width="0.300" height="22" fill="#7c3aed"><title>GrassRenderer::prepare: 0.004 ms; self 0.004 ms</title></rect><rect x="210.601" y="156" width="0.300" height="22" fill="#7c3aed"><title>GrassRenderer::prepare: 0.004 ms; self 0.004 ms</title></rect><rect x="210.627" y="156" width="0.300" height="22" fill="#7c3aed"><title>setBodyLighting: 0.029 ms; self 0.029 ms</title></rect><rect x="212.832" y="156" width="0.300" height="22" fill="#7c3aed"><title>setBodyLighting: 0.024 ms; self 0.024 ms</title></rect><rect x="212.878" y="156" width="0.300" height="22" fill="#7c3aed"><title>setBodyLighting: 0.024 ms; self 0.024 ms</title></rect><rect x="215.650" y="156" width="0.300" height="22" fill="#7c3aed"><title>setBodyLighting: 0.031 ms; self 0.031 ms</title></rect><rect x="266.964" y="156" width="0.300" height="22" fill="#7c3aed"><title>setBodyLighting: 0.035 ms; self 0.035 ms</title></rect><rect x="292.423" y="156" width="0.300" height="22" fill="#7c3aed"><title>GrassRenderer::prepare: 0.004 ms; self 0.004 ms</title></rect><rect x="292.463" y="156" width="0.300" height="22" fill="#7c3aed"><title>GrassRenderer::prepare: 0.008 ms; self 0.008 ms</title></rect><rect x="292.490" y="156" width="0.300" height="22" fill="#7c3aed"><title>setBodyLighting: 0.029 ms; self 0.029 ms</title></rect><rect x="294.640" y="156" width="0.300" height="22" fill="#7c3aed"><title>setBodyLighting: 0.023 ms; self 0.023 ms</title></rect><rect x="294.677" y="156" width="0.300" height="22" fill="#7c3aed"><title>setBodyLighting: 0.022 ms; self 0.022 ms</title></rect><rect x="297.400" y="156" width="0.300" height="22" fill="#7c3aed"><title>setBodyLighting: 0.031 ms; self 0.031 ms</title></rect><rect x="347.331" y="156" width="0.300" height="22" fill="#7c3aed"><title>setBodyLighting: 0.035 ms; self 0.035 ms</title></rect><rect x="372.509" y="156" width="108.641" height="22" fill="#7c3aed"><title>terrain.build_land_and_water: 2111.726 ms; self 0.064 ms</title></rect><text x="376.509" y="171" fill="white">land + water</text><rect x="481.211" y="156" width="0.300" height="22" fill="#7c3aed"><title>Renderer::installLandMesh: 3.737 ms; self 3.737 ms</title></rect><rect x="481.409" y="156" width="0.300" height="22" fill="#7c3aed"><title>GrassRenderer::prepare: 0.004 ms; self 0.004 ms</title></rect><rect x="481.410" y="156" width="0.300" height="22" fill="#7c3aed"><title>GrassRenderer::prepare: 0.004 ms; self 0.004 ms</title></rect><rect x="483.163" y="156" width="0.300" height="22" fill="#7c3aed"><title>setBodyLighting: 0.029 ms; self 0.029 ms</title></rect><rect x="490.060" y="156" width="0.300" height="22" fill="#7c3aed"><title>setBodyLighting: 0.027 ms; self 0.027 ms</title></rect><rect x="490.098" y="156" width="0.300" height="22" fill="#7c3aed"><title>setBodyLighting: 0.023 ms; self 0.023 ms</title></rect><rect x="492.787" y="156" width="0.300" height="22" fill="#7c3aed"><title>setBodyLighting: 0.028 ms; self 0.028 ms</title></rect><rect x="542.201" y="156" width="0.300" height="22" fill="#7c3aed"><title>setBodyLighting: 0.035 ms; self 0.035 ms</title></rect><rect x="567.588" y="156" width="0.300" height="22" fill="#7c3aed"><title>GrassRenderer::prepare: 0.004 ms; self 0.004 ms</title></rect><rect x="567.589" y="156" width="0.300" height="22" fill="#7c3aed"><title>GrassRenderer::prepare: 0.004 ms; self 0.004 ms</title></rect><rect x="567.615" y="156" width="0.300" height="22" fill="#7c3aed"><title>setBodyLighting: 0.029 ms; self 0.029 ms</title></rect><rect x="569.818" y="156" width="0.300" height="22" fill="#7c3aed"><title>setBodyLighting: 0.022 ms; self 0.022 ms</title></rect><rect x="569.854" y="156" width="0.300" height="22" fill="#7c3aed"><title>setBodyLighting: 0.021 ms; self 0.021 ms</title></rect><rect x="572.636" y="156" width="0.300" height="22" fill="#7c3aed"><title>setBodyLighting: 0.029 ms; self 0.029 ms</title></rect><rect x="623.922" y="156" width="0.300" height="22" fill="#7c3aed"><title>setBodyLighting: 0.035 ms; self 0.035 ms</title></rect><rect x="649.551" y="156" width="0.300" height="22" fill="#7c3aed"><title>GrassRenderer::prepare: 0.004 ms; self 0.004 ms</title></rect><rect x="649.552" y="156" width="0.300" height="22" fill="#7c3aed"><title>GrassRenderer::prepare: 0.004 ms; self 0.004 ms</title></rect><rect x="649.580" y="156" width="0.300" height="22" fill="#7c3aed"><title>setBodyLighting: 0.029 ms; self 0.029 ms</title></rect><rect x="651.757" y="156" width="0.300" height="22" fill="#7c3aed"><title>setBodyLighting: 0.020 ms; self 0.020 ms</title></rect><rect x="651.800" y="156" width="0.300" height="22" fill="#7c3aed"><title>setBodyLighting: 0.032 ms; self 0.032 ms</title></rect><rect x="654.882" y="156" width="0.300" height="22" fill="#7c3aed"><title>setBodyLighting: 0.032 ms; self 0.032 ms</title></rect><rect x="704.952" y="156" width="0.300" height="22" fill="#7c3aed"><title>setBodyLighting: 0.035 ms; self 0.035 ms</title></rect><rect x="730.504" y="156" width="0.300" height="22" fill="#7c3aed"><title>GrassRenderer::prepare: 0.004 ms; self 0.004 ms</title></rect><rect x="730.506" y="156" width="0.300" height="22" fill="#7c3aed"><title>GrassRenderer::prepare: 0.004 ms; self 0.004 ms</title></rect><rect x="730.539" y="156" width="0.300" height="22" fill="#7c3aed"><title>setBodyLighting: 0.030 ms; self 0.030 ms</title></rect><rect x="732.742" y="156" width="0.300" height="22" fill="#7c3aed"><title>setBodyLighting: 0.024 ms; self 0.024 ms</title></rect><rect x="732.787" y="156" width="0.300" height="22" fill="#7c3aed"><title>setBodyLighting: 0.054 ms; self 0.054 ms</title></rect><rect x="735.993" y="156" width="0.300" height="22" fill="#7c3aed"><title>setBodyLighting: 0.028 ms; self 0.028 ms</title></rect><rect x="787.298" y="156" width="0.300" height="22" fill="#7c3aed"><title>setBodyLighting: 0.035 ms; self 0.035 ms</title></rect><rect x="812.522" y="156" width="0.300" height="22" fill="#7c3aed"><title>GrassRenderer::prepare: 0.004 ms; self 0.004 ms</title></rect><rect x="812.523" y="156" width="0.300" height="22" fill="#7c3aed"><title>GrassRenderer::prepare: 0.004 ms; self 0.004 ms</title></rect><rect x="812.552" y="156" width="0.300" height="22" fill="#7c3aed"><title>setBodyLighting: 0.032 ms; self 0.032 ms</title></rect><rect x="815.350" y="156" width="0.300" height="22" fill="#7c3aed"><title>setBodyLighting: 0.029 ms; self 0.029 ms</title></rect><rect x="815.393" y="156" width="0.300" height="22" fill="#7c3aed"><title>setBodyLighting: 0.025 ms; self 0.025 ms</title></rect><rect x="818.095" y="156" width="0.300" height="22" fill="#7c3aed"><title>setBodyLighting: 0.030 ms; self 0.030 ms</title></rect><rect x="868.959" y="156" width="0.300" height="22" fill="#7c3aed"><title>setBodyLighting: 0.034 ms; self 0.034 ms</title></rect><rect x="894.926" y="156" width="0.300" height="22" fill="#7c3aed"><title>GrassRenderer::prepare: 0.004 ms; self 0.004 ms</title></rect><rect x="894.927" y="156" width="0.300" height="22" fill="#7c3aed"><title>GrassRenderer::prepare: 0.004 ms; self 0.004 ms</title></rect><rect x="894.953" y="156" width="0.300" height="22" fill="#7c3aed"><title>setBodyLighting: 0.029 ms; self 0.029 ms</title></rect><rect x="897.164" y="156" width="0.300" height="22" fill="#7c3aed"><title>setBodyLighting: 0.023 ms; self 0.023 ms</title></rect><rect x="897.200" y="156" width="0.300" height="22" fill="#7c3aed"><title>setBodyLighting: 0.021 ms; self 0.021 ms</title></rect><rect x="899.857" y="156" width="0.300" height="22" fill="#7c3aed"><title>setBodyLighting: 0.027 ms; self 0.027 ms</title></rect><rect x="951.355" y="156" width="0.300" height="22" fill="#7c3aed"><title>setBodyLighting: 0.035 ms; self 0.035 ms</title></rect><rect x="976.411" y="156" width="104.627" height="22" fill="#7c3aed"><title>terrain.build_land_and_water: 2033.690 ms; self 0.085 ms</title></rect><text x="980.411" y="171" fill="white">land + water</text><rect x="1081.105" y="156" width="0.300" height="22" fill="#7c3aed"><title>Renderer::installLandMesh: 4.215 ms; self 4.215 ms</title></rect><rect x="1081.328" y="156" width="0.300" height="22" fill="#7c3aed"><title>GrassRenderer::prepare: 0.004 ms; self 0.004 ms</title></rect><rect x="1081.329" y="156" width="0.300" height="22" fill="#7c3aed"><title>GrassRenderer::prepare: 0.004 ms; self 0.004 ms</title></rect><rect x="1083.385" y="156" width="0.300" height="22" fill="#7c3aed"><title>setBodyLighting: 0.032 ms; self 0.032 ms</title></rect><rect x="1091.404" y="156" width="0.300" height="22" fill="#7c3aed"><title>setBodyLighting: 0.032 ms; self 0.032 ms</title></rect><rect x="1091.447" y="156" width="0.300" height="22" fill="#7c3aed"><title>setBodyLighting: 0.025 ms; self 0.025 ms</title></rect><rect x="1094.157" y="156" width="0.300" height="22" fill="#7c3aed"><title>setBodyLighting: 0.031 ms; self 0.031 ms</title></rect><rect x="1143.730" y="156" width="0.300" height="22" fill="#7c3aed"><title>setBodyLighting: 0.034 ms; self 0.034 ms</title></rect><rect x="372.509" y="183" width="99.788" height="22" fill="#be123c"><title>TerrainSurface::buildGeometryForEye: 1939.638 ms; self 308.649 ms</title></rect><text x="376.509" y="198" fill="white">terrain.buil</text><rect x="472.298" y="183" width="8.850" height="22" fill="#be123c"><title>TerrainSurface::buildGeometryForEye: 172.024 ms; self 3.702 ms</title></rect><rect x="976.411" y="183" width="95.285" height="22" fill="#be123c"><title>TerrainSurface::buildGeometryForEye: 1852.111 ms; self 300.608 ms</title></rect><text x="980.411" y="198" fill="white">terrain.bui</text><rect x="1071.698" y="183" width="9.337" height="22" fill="#be123c"><title>TerrainSurface::buildGeometryForEye: 181.493 ms; self 3.683 ms</title></rect><rect x="388.376" y="210" width="83.909" height="22" fill="#0369a1"><title>TerrainSurface::refineShoreline: 1630.988 ms; self 1630.988 ms</title></rect><text x="392.376" y="225" fill="white">shoreline</text><rect x="472.479" y="210" width="8.660" height="22" fill="#0369a1"><title>TerrainSurface::refineShoreline: 168.322 ms; self 168.322 ms</title></rect><rect x="991.865" y="210" width="79.820" height="22" fill="#0369a1"><title>TerrainSurface::refineShoreline: 1551.503 ms; self 1551.503 ms</title></rect><text x="995.865" y="225" fill="white">shoreline</text><rect x="1071.875" y="210" width="9.148" height="22" fill="#0369a1"><title>TerrainSurface::refineShoreline: 177.810 ms; self 177.810 ms</title></rect></g></svg>